<svg width="40" height="40" viewBox="0 0 40 40" fill="none" xmlns="http://www.w3.org/2000/svg">
<path d="M26.6667 21.5002V28.5002C26.6667 34.3335 24.3334 36.6668 18.5 36.6668H11.5C5.66671 36.6668 3.33337 34.3335 3.33337 28.5002V21.5002C3.33337 15.6668 5.66671 13.3335 11.5 13.3335H18.5C24.3334 13.3335 26.6667 15.6668 26.6667 21.5002Z" stroke="white" stroke-width="3" stroke-linecap="round" stroke-linejoin="round"/>
<path d="M36.6667 11.5002V18.5002C36.6667 24.3335 34.3334 26.6668 28.5 26.6668H26.6667V21.5002C26.6667 15.6668 24.3334 13.3335 18.5 13.3335H13.3334V11.5002C13.3334 5.66683 15.6667 3.3335 21.5 3.3335H28.5C34.3334 3.3335 36.6667 5.66683 36.6667 11.5002Z" stroke="white" stroke-width="3" stroke-linecap="round" stroke-linejoin="round"/>
</svg>
